/* XPM */
static char *result[] = {
/* columns rows colors chars-per-pixel */
"16 16 6 1 ",
"  c #59413E",
". c #514047",
"X c #77514C",
"o c #8D5D57",
"O c #966F5F",
"+ c #AA8779",
/* pixels */
".OOOOO...XXXXX..",
"OOOOOO+.XXXXXXo.",
"OOOOOO+.XXXXXXo.",
"OOOOOO+.XXXXXXo.",
"OOOOOO+.XXXXXXo.",
"OOOOO++.XXXXXoo.",
" +++++ . ooooo .",
".     ...     ..",
".XXXXX...XXXXX..",
"XXXXXXo.XXXXXXo.",
"XXXXXXo.XXXXXXo.",
"XXXXXXo.XXXXXXo.",
"XXXXXXo.XXXXXXo.",
"XXXXXoo.XXXXXoo.",
" ooooo . ooooo .",
".     ...     .."
};
