/* XPM */
static char *result[] = {
/* columns rows colors chars-per-pixel */
"16 16 4 1 ",
"  c #181425",
". c #514047",
"X c gray64",
"o c white",
/* pixels */
"................",
"................",
"................",
"................",
".. X ...... X ..",
". ooX .... ooX .",
".  X  ....  X  .",
"..   ......   ..",
"................",
"................",
"................",
"................",
".. X ...... X ..",
". ooX .... ooX .",
".  X  ....  X  .",
"..   ......   .."
};
