/* XPM */
static char *result[] = {
/* columns rows colors chars-per-pixel */
"16 16 6 1 ",
"  c #59413E",
". c #514047",
"X c #77514C",
"o c #8D5D57",
"O c #966F5F",
"+ c #AA8779",
/* pixels */
".OOOOO...OOOOO..",
"OOOOOO+.OOOOOO+.",
"OOOOOO+.OOOOOO+.",
"OOOOOO+.OOOOOO+.",
"OOOOOO+.OOOOOO+.",
"OOOOO++.OOOOO++.",
" +++++ . +++++ .",
".     ...     ..",
".XXXXX...OOOOO..",
"XXXXXXo.OOOOOO+.",
"XXXXXXo.OOOOOO+.",
"XXXXXXo.OOOOOO+.",
"XXXXXXo.OOOOOO+.",
"XXXXXoo.OOOOO++.",
" ooooo . +++++ .",
".     ...     .."
};
