/* XPM */
static char *result[] = {
/* columns rows colors chars-per-pixel */
"16 16 3 1 ",
"  c #181425",
". c #514047",
"X c gray64",
/* pixels */
"................",
"................",
"................",
"................",
"..   ......   ..",
".     ....     .",
".  X  ....  X  .",
"..   ......   ..",
"................",
"................",
"................",
"................",
"..   ......   ..",
".     ....     .",
".  X  ....  X  .",
"..   ......   .."
};
