/* XPM */
static char *result[] = {
/* columns rows colors chars-per-pixel */
"16 16 2 1 ",
"  c #181425",
". c #514047",
/* pixels */
"................",
"................",
"................",
"................",
"..   ......   ..",
".     ....     .",
".     ....     .",
"..   ......   ..",
"................",
"................",
"................",
"................",
"..   ......   ..",
".     ....     .",
".     ....     .",
"..   ......   .."
};
