/* XPM */
static char *result[] = {
/* columns rows colors chars-per-pixel */
"16 16 5 1 ",
"  c #181425",
". c #514047",
"X c gray47",
"o c gray64",
"O c white",
/* pixels */
"...O........O...",
"...O........O...",
"..OoX......OoX..",
"..ooo......ooo..",
"..ooo......ooo..",
".XooXX....XooXX.",
".  X  ....  X  .",
"..   ......   ..",
"...O........O...",
"...O........O...",
"..OoX......OoX..",
"..ooo......ooo..",
"..ooo......ooo..",
".XooXX....XooXX.",
".  X  ....  X  .",
"..   ......   .."
};
